<mxfile host="65bd71144e" modified="2021-01-18T05:51:17.057Z" agent="5.0 (Windows NT 10.0; Win64; x64) AppleWebKit/537.36 (KHTML, like Gecko) Code/1.52.1 Chrome/83.0.4103.122 Electron/9.3.5 Safari/537.36" etag="sYVAM2vGzNyRn-xHbzVG" version="13.10.0" type="embed">
    <diagram id="x-2llMLqjgGtAXv94k1p" name="Page-1">
        <mxGraphModel dx="1128" dy="942" grid="1" gridSize="10" guides="1" tooltips="1" connect="1" arrows="1" fold="1" page="1" pageScale="1" pageWidth="850" pageHeight="1100" math="0" shadow="0">
            <root>
                <mxCell id="0"/>
                <mxCell id="1" parent="0"/>
                <mxCell id="2" value="" style="rounded=0;whiteSpace=wrap;html=1;" parent="1" vertex="1">
                    <mxGeometry x="340" y="30" width="810" height="930" as="geometry"/>
                </mxCell>
                <mxCell id="5" value="Lễ tân" style="shape=umlActor;verticalLabelPosition=bottom;verticalAlign=top;html=1;outlineConnect=0;fillColor=#ffff88;strokeColor=#36393d;" parent="1" vertex="1">
                    <mxGeometry x="90" y="270" width="80" height="130" as="geometry"/>
                </mxCell>
                <mxCell id="6" value="&lt;font color=&quot;#ff0000&quot; style=&quot;font-size: 30px&quot;&gt;Quản Lý Khách sạn&lt;/font&gt;" style="text;html=1;strokeColor=none;fillColor=none;align=center;verticalAlign=middle;whiteSpace=wrap;rounded=0;" parent="1" vertex="1">
                    <mxGeometry x="527.5" y="40" width="435" height="20" as="geometry"/>
                </mxCell>
                <mxCell id="9" value="&lt;font style=&quot;font-size: 15px&quot;&gt;Tìm kiếm thông tin phòng&lt;/font&gt;" style="ellipse;whiteSpace=wrap;html=1;fillColor=#ffff88;strokeColor=#36393d;" parent="1" vertex="1">
                    <mxGeometry x="480" y="260" width="120" height="80" as="geometry"/>
                </mxCell>
                <mxCell id="11" value="&lt;font style=&quot;font-size: 15px&quot;&gt;Số ngày khách hàng đã ở&amp;nbsp;&lt;/font&gt;" style="ellipse;whiteSpace=wrap;html=1;fillColor=#ffff88;strokeColor=#36393d;" parent="1" vertex="1">
                    <mxGeometry x="750" y="190" width="120" height="80" as="geometry"/>
                </mxCell>
                <mxCell id="12" value="&lt;span style=&quot;font-size: 15px&quot;&gt;Xem số phòng còn trống&lt;/span&gt;" style="ellipse;whiteSpace=wrap;html=1;fillColor=#ffff88;strokeColor=#36393d;" parent="1" vertex="1">
                    <mxGeometry x="740" y="330" width="140" height="90" as="geometry"/>
                </mxCell>
                <mxCell id="13" value="&lt;span style=&quot;font-size: 15px&quot;&gt;Tìm kiếm theo họ tên của khách hàng&lt;/span&gt;" style="ellipse;whiteSpace=wrap;html=1;fillColor=#ffff88;strokeColor=#36393d;" parent="1" vertex="1">
                    <mxGeometry x="580" y="90" width="160" height="80" as="geometry"/>
                </mxCell>
                <mxCell id="15" value="Extends" style="endArrow=classic;endSize=16;endFill=1;html=1;entryX=0;entryY=0.5;entryDx=0;entryDy=0;exitX=1;exitY=0;exitDx=0;exitDy=0;" parent="1" source="9" target="11" edge="1">
                    <mxGeometry width="160" relative="1" as="geometry">
                        <mxPoint x="490" y="360" as="sourcePoint"/>
                        <mxPoint x="650" y="360" as="targetPoint"/>
                    </mxGeometry>
                </mxCell>
                <mxCell id="16" value="Extends" style="endArrow=classic;endSize=16;endFill=1;html=1;entryX=0;entryY=0.5;entryDx=0;entryDy=0;" parent="1" source="9" target="12" edge="1">
                    <mxGeometry width="160" relative="1" as="geometry">
                        <mxPoint x="645" y="279.9999999999999" as="sourcePoint"/>
                        <mxPoint x="750" y="229.9999999999999" as="targetPoint"/>
                    </mxGeometry>
                </mxCell>
                <mxCell id="18" value="Extends" style="endArrow=classic;endSize=16;endFill=1;html=1;exitX=0.5;exitY=0;exitDx=0;exitDy=0;" parent="1" source="9" target="13" edge="1">
                    <mxGeometry width="160" relative="1" as="geometry">
                        <mxPoint x="645" y="279.9999999999999" as="sourcePoint"/>
                        <mxPoint x="750" y="229.9999999999999" as="targetPoint"/>
                    </mxGeometry>
                </mxCell>
                <mxCell id="19" value="&lt;font style=&quot;font-size: 15px&quot;&gt;Tính Tiền&amp;nbsp;&lt;/font&gt;" style="ellipse;whiteSpace=wrap;html=1;fillColor=#ffff88;strokeColor=#36393d;" parent="1" vertex="1">
                    <mxGeometry x="480" y="420" width="120" height="80" as="geometry"/>
                </mxCell>
                <mxCell id="22" value="&lt;span style=&quot;font-size: 15px&quot;&gt;Đặt phòng trực tiếp&lt;/span&gt;" style="ellipse;whiteSpace=wrap;html=1;fillColor=#ffff88;strokeColor=#36393d;" parent="1" vertex="1">
                    <mxGeometry x="480" y="540" width="120" height="80" as="geometry"/>
                </mxCell>
                <mxCell id="23" value="include" style="endArrow=classic;endSize=16;endFill=1;html=1;exitX=0.5;exitY=1;exitDx=0;exitDy=0;" parent="1" source="9" target="19" edge="1">
                    <mxGeometry width="160" relative="1" as="geometry">
                        <mxPoint x="592.4264068711902" y="281.7157287525398" as="sourcePoint"/>
                        <mxPoint x="750" y="209.9999999999999" as="targetPoint"/>
                    </mxGeometry>
                </mxCell>
                <mxCell id="24" value="&lt;span style=&quot;font-size: 15px&quot;&gt;Kiểm tra tình trạng phòng&lt;/span&gt;" style="ellipse;whiteSpace=wrap;html=1;fillColor=#ffff88;strokeColor=#36393d;" parent="1" vertex="1">
                    <mxGeometry x="750" y="540" width="120" height="80" as="geometry"/>
                </mxCell>
                <mxCell id="29" value="include" style="endArrow=classic;endSize=16;endFill=1;html=1;" parent="1" source="24" target="22" edge="1">
                    <mxGeometry width="160" relative="1" as="geometry">
                        <mxPoint x="280" y="115.21739130434798" as="sourcePoint"/>
                        <mxPoint x="580" y="647" as="targetPoint"/>
                    </mxGeometry>
                </mxCell>
                <mxCell id="30" value="Extends" style="endArrow=classic;endSize=16;endFill=1;html=1;entryX=0.5;entryY=1;entryDx=0;entryDy=0;exitX=0.5;exitY=0;exitDx=0;exitDy=0;" parent="1" source="24" target="12" edge="1">
                    <mxGeometry width="160" relative="1" as="geometry">
                        <mxPoint x="608.1395075887958" y="319.88371629009544" as="sourcePoint"/>
                        <mxPoint x="750" y="345" as="targetPoint"/>
                    </mxGeometry>
                </mxCell>
                <mxCell id="35" value="&lt;span style=&quot;font-size: 15px&quot;&gt;Quản Lý doanh thu&lt;/span&gt;" style="ellipse;whiteSpace=wrap;html=1;fillColor=#ffff88;strokeColor=#36393d;" parent="1" vertex="1">
                    <mxGeometry x="480" y="680" width="120" height="80" as="geometry"/>
                </mxCell>
                <mxCell id="36" value="&lt;span style=&quot;font-size: 15px&quot;&gt;Doanh thu hàng ngày&lt;/span&gt;" style="ellipse;whiteSpace=wrap;html=1;fillColor=#ffff88;strokeColor=#36393d;" parent="1" vertex="1">
                    <mxGeometry x="720" y="660" width="120" height="80" as="geometry"/>
                </mxCell>
                <mxCell id="38" value="&lt;span style=&quot;font-size: 15px&quot;&gt;Doanh thu hàng tháng&lt;/span&gt;" style="ellipse;whiteSpace=wrap;html=1;fillColor=#ffff88;strokeColor=#36393d;" parent="1" vertex="1">
                    <mxGeometry x="710" y="800" width="120" height="80" as="geometry"/>
                </mxCell>
                <mxCell id="39" value="Extends" style="endArrow=classic;endSize=16;endFill=1;html=1;entryX=0;entryY=0.5;entryDx=0;entryDy=0;exitX=1;exitY=0.5;exitDx=0;exitDy=0;" parent="1" source="35" target="36" edge="1">
                    <mxGeometry width="160" relative="1" as="geometry">
                        <mxPoint x="870" y="860" as="sourcePoint"/>
                        <mxPoint x="870" y="740" as="targetPoint"/>
                    </mxGeometry>
                </mxCell>
                <mxCell id="40" value="Extends" style="endArrow=classic;endSize=16;endFill=1;html=1;entryX=0;entryY=0;entryDx=0;entryDy=0;exitX=1;exitY=1;exitDx=0;exitDy=0;" parent="1" source="35" target="38" edge="1">
                    <mxGeometry width="160" relative="1" as="geometry">
                        <mxPoint x="860" y="880" as="sourcePoint"/>
                        <mxPoint x="860" y="760" as="targetPoint"/>
                    </mxGeometry>
                </mxCell>
                <mxCell id="44" value="&lt;span style=&quot;font-size: 15px&quot;&gt;Xuất ra file&amp;nbsp;&lt;/span&gt;&lt;span style=&quot;font-size: 15px&quot;&gt;excel&lt;/span&gt;" style="ellipse;whiteSpace=wrap;html=1;fillColor=#ffff88;strokeColor=#36393d;" parent="1" vertex="1">
                    <mxGeometry x="950" y="730" width="120" height="80" as="geometry"/>
                </mxCell>
                <mxCell id="46" value="Extends" style="endArrow=classic;endSize=16;endFill=1;html=1;entryX=0;entryY=0;entryDx=0;entryDy=0;exitX=1;exitY=0.5;exitDx=0;exitDy=0;" parent="1" source="36" target="44" edge="1">
                    <mxGeometry width="160" relative="1" as="geometry">
                        <mxPoint x="610" y="730" as="sourcePoint"/>
                        <mxPoint x="730" y="710" as="targetPoint"/>
                    </mxGeometry>
                </mxCell>
                <mxCell id="47" value="Extends" style="endArrow=classic;endSize=16;endFill=1;html=1;entryX=0;entryY=1;entryDx=0;entryDy=0;exitX=1;exitY=0.5;exitDx=0;exitDy=0;" parent="1" source="38" target="44" edge="1">
                    <mxGeometry width="160" relative="1" as="geometry">
                        <mxPoint x="850" y="710" as="sourcePoint"/>
                        <mxPoint x="930" y="780" as="targetPoint"/>
                        <Array as="points"/>
                    </mxGeometry>
                </mxCell>
                <mxCell id="49" value="&lt;font style=&quot;font-size: 30px&quot;&gt;excel&lt;/font&gt;" style="html=1;fillColor=#cdeb8b;strokeColor=#36393d;" parent="1" vertex="1">
                    <mxGeometry x="1275" y="730" width="160" height="80" as="geometry"/>
                </mxCell>
                <mxCell id="50" value="" style="endArrow=none;html=1;entryX=0;entryY=0.5;entryDx=0;entryDy=0;exitX=1;exitY=0.5;exitDx=0;exitDy=0;" parent="1" source="44" target="49" edge="1">
                    <mxGeometry width="50" height="50" relative="1" as="geometry">
                        <mxPoint x="900" y="450" as="sourcePoint"/>
                        <mxPoint x="950" y="400" as="targetPoint"/>
                    </mxGeometry>
                </mxCell>
                <mxCell id="51" value="" style="endArrow=none;html=1;entryX=0;entryY=0.5;entryDx=0;entryDy=0;exitX=1;exitY=0.3333333333333333;exitDx=0;exitDy=0;exitPerimeter=0;" parent="1" source="5" target="9" edge="1">
                    <mxGeometry width="50" height="50" relative="1" as="geometry">
                        <mxPoint x="240" y="420" as="sourcePoint"/>
                        <mxPoint x="280" y="380" as="targetPoint"/>
                    </mxGeometry>
                </mxCell>
                <mxCell id="52" value="" style="endArrow=none;html=1;entryX=0;entryY=0.5;entryDx=0;entryDy=0;exitX=1;exitY=0.3333333333333333;exitDx=0;exitDy=0;exitPerimeter=0;" parent="1" source="5" target="19" edge="1">
                    <mxGeometry width="50" height="50" relative="1" as="geometry">
                        <mxPoint x="249.99999999999977" y="429.9999999999998" as="sourcePoint"/>
                        <mxPoint x="289.9999999999998" y="389.9999999999998" as="targetPoint"/>
                    </mxGeometry>
                </mxCell>
                <mxCell id="53" value="" style="endArrow=none;html=1;entryX=0;entryY=0.5;entryDx=0;entryDy=0;exitX=1;exitY=0.3333333333333333;exitDx=0;exitDy=0;exitPerimeter=0;" parent="1" source="5" target="22" edge="1">
                    <mxGeometry width="50" height="50" relative="1" as="geometry">
                        <mxPoint x="259.9999999999998" y="439.9999999999998" as="sourcePoint"/>
                        <mxPoint x="299.9999999999998" y="399.9999999999998" as="targetPoint"/>
                    </mxGeometry>
                </mxCell>
                <mxCell id="54" value="" style="endArrow=none;html=1;exitX=1;exitY=0.3333333333333333;exitDx=0;exitDy=0;exitPerimeter=0;entryX=0;entryY=0.5;entryDx=0;entryDy=0;" parent="1" source="5" target="35" edge="1">
                    <mxGeometry width="50" height="50" relative="1" as="geometry">
                        <mxPoint x="269.9999999999998" y="449.9999999999998" as="sourcePoint"/>
                        <mxPoint x="309.9999999999998" y="409.9999999999998" as="targetPoint"/>
                    </mxGeometry>
                </mxCell>
            </root>
        </mxGraphModel>
    </diagram>
</mxfile>